HIERARCHY
ROOT Hips
{
  OFFSET 7.333 -26.027 -164.856
  CHANNELS 6 Xposition Yposition Zposition Zrotation Xrotation Yrotation
  JOINT LeftUpLeg
  {
    OFFSET 10.092 0.000 0.000
    CHANNELS 3 Zrotation Xrotation Yrotation
    JOINT LeftLeg
    {
      OFFSET 0.000 -38.160 -0.000
    CHANNELS 3 Zrotation Xrotation Yrotation
      JOINT LeftFoot
      {
        OFFSET -0.000 -24.040 0.000
    CHANNELS 3 Zrotation Xrotation Yrotation
        End Site
        {
          OFFSET -0.000 0.000 12.945
        }
      }
    }
  }
  JOINT RightUpLeg
  {
    OFFSET -10.092 -0.000 0.000
    CHANNELS 3 Zrotation Xrotation Yrotation
    JOINT RightLeg
    {
      OFFSET 0.000 -33.046 0.000
    CHANNELS 3 Zrotation Xrotation Yrotation
      JOINT RightFoot
      {
        OFFSET 0.000 -22.031 -0.000
    CHANNELS 3 Zrotation Xrotation Yrotation
        End Site
        {
          OFFSET 0.000 -0.000 11.863
        }
      }
    }
  }
  JOINT Spine
  {
    OFFSET -0.000 16.511 0.000
    CHANNELS 3 Zrotation Xrotation Yrotation
    JOINT LeftShoulder
    {
      OFFSET 0 16.511 0
    CHANNELS 3 Zrotation Xrotation Yrotation
      JOINT LeftArm
      {
        OFFSET 16.337 0.000 0.000
    CHANNELS 3 Zrotation Xrotation Yrotation
        JOINT LeftForeArm
        {
          OFFSET 0.000 -24.030 0.000
    CHANNELS 3 Zrotation Xrotation Yrotation
          JOINT LeftHand
          {
            OFFSET 0.000 -17.629 -0.000
    CHANNELS 3 Zrotation Xrotation Yrotation
            End Site
            {
              OFFSET 0.000 -11.753 -0.000
            }
          }
        }
      }
    }
    JOINT RightShoulder
    {
      OFFSET 0 16.511 0
    CHANNELS 3 Zrotation Xrotation Yrotation
      JOINT RightArm
      {
        OFFSET -16.337 0.000 0.000
    CHANNELS 3 Zrotation Xrotation Yrotation
        JOINT RightForeArm
        {
          OFFSET -0.000 -19.534 0.000
    CHANNELS 3 Zrotation Xrotation Yrotation
          JOINT RightHand
          {
            OFFSET 0.000 -19.514 -0.000
    CHANNELS 3 Zrotation Xrotation Yrotation
            End Site
            {
              OFFSET 0.000 -13.010 -0.000
            }
          }
        }
      }
    }
    JOINT Neck
    {
      OFFSET -0.000 16.511 0.000
    CHANNELS 3 Zrotation Xrotation Yrotation
      JOINT Head
      {
        OFFSET -0.000 12.493 -0.000
    CHANNELS 3 Zrotation Xrotation Yrotation
        End Site
        {
          OFFSET -0.000 8.328 -0.000
        }
      }
    }
  }
}
MOTION
Frames: 15
Frame Time: 0.0333333
0 0 0 -1.392336e+00 -6.663996e-01 -8.947211e+00 6.992073e-01 1.156012e+01 -2.051276e-02 3.509511e+00 -8.695249e+00 1.140997e+00 0 7.599807e-09 7.361091e-09 1.890892e+00 1.404358e+01 -5.993511e-01 1.359196e+00 -1.274134e+01 1.720407e+00 0 1.251514e-08 -4.466180e-09 1.315076e-07 -7.461255e-07 -1.347917e-05 0 0 0 3.423939e+01 -3.778517e+01 5.793263e+00 8.521035e+01 -1.446474e+01 9.024753e+01 -1.112013e-08 3.047845e-08 -9.691080e-09 0 0 0 -3.309505e+01 -1.627835e+01 1.564209e+01 -9.840634e+01 -6.930356e+00 -2.230733e+01 -1.727001e-08 -1.845296e-08 1.223115e-08 1.852845e-01 -7.135296e-01 -1.832876e-04 0 -5.459523e-09 -1.452527e-08 
0 0 0 -1.406551e+00 -6.312463e-01 -9.199992e+00 -1.135625e-01 1.172700e+01 -3.316136e-02 3.434414e+00 -8.246255e+00 1.149766e+00 0 2.855099e-09 6.251565e-09 2.501335e+00 1.402818e+01 -4.711964e-01 9.156615e-01 -1.298918e+01 1.285526e+00 0 4.465609e-09 -4.466180e-09 1.728937e-07 -8.546125e-06 -6.901130e-06 0 0 0 3.396520e+01 -3.797815e+01 4.268089e+00 7.181007e+01 -1.525164e+01 6.660718e+01 -2.299198e-08 1.023316e-08 -1.156387e-08 0 0 0 -2.687686e+01 -1.262211e+01 1.577906e+01 -9.017420e+01 -5.255993e+00 -2.230733e+01 -3.485968e-08 -1.845296e-08 2.642194e-08 1.684836e-01 -6.852000e-01 -3.052587e-04 0 -1.055848e-08 -5.423253e-09 
0 0 0 -1.049716e+00 -5.602854e-01 -9.550134e+00 -5.780207e-01 1.188850e+01 -2.591948e-02 3.387718e+00 -8.014047e+00 1.158475e+00 0 6.110003e-09 2.603193e-09 1.869133e+00 1.401487e+01 -4.632482e-01 1.051795e+00 -1.729586e+01 1.243764e+00 0 7.577534e-09 -5.876868e-09 3.013297e-08 -8.858737e-06 4.636547e-06 0 0 0 3.346009e+01 -3.779019e+01 3.259259e+00 5.881254e+01 -1.776360e+01 6.613196e+01 -2.299198e-08 2.294413e-08 -1.593231e-09 0 0 0 -2.749799e+01 -9.610443e+00 1.562955e+01 -8.111149e+01 -3.744326e+00 -1.203810e+01 -3.485968e-08 -1.742249e-08 2.642194e-08 1.923450e-01 -7.195868e-01 -2.856471e-04 0 -1.055848e-08 -8.441840e-09 
0 0 0 -1.397272e+00 -4.734514e-01 -1.220987e+01 -8.409109e-01 1.489379e+01 2.461190e-02 3.337108e+00 -1.004276e+01 1.143024e+00 0 6.110003e-09 5.594290e-09 1.815831e+00 1.401761e+01 -6.047926e-01 1.421025e+00 -1.738375e+01 1.659954e+00 0 7.577534e-09 -5.922800e-09 4.638873e-08 -1.019485e-05 1.425476e-06 0 0 0 4.143840e+01 -3.773378e+01 3.512855e+00 4.771544e+01 -2.052352e+01 8.786306e+01 -1.187185e-08 2.294413e-08 1.703008e-08 0 0 0 -2.698662e+01 -7.196941e+00 1.525472e+01 -7.161410e+01 -5.062791e+00 -2.271803e+01 -1.758967e-08 -1.570381e-08 1.419079e-08 1.540404e-01 -6.855293e-01 -1.961850e-04 0 -5.098956e-09 1.578986e-08 
0 0 0 -1.420520e+00 -4.107093e-01 -1.266406e+01 -8.891379e-01 1.504396e+01 8.568665e-02 3.308043e+00 -1.000627e+01 1.145253e+00 0 3.254904e-09 5.594290e-09 2.221093e+00 1.401337e+01 -5.609154e-01 1.352799e+00 -1.734900e+01 1.257274e+00 0 3.111925e-09 -6.850059e-09 8.474616e-08 -9.705114e-06 3.117760e-06 0 0 0 4.074192e+01 -3.791668e+01 2.073134e+00 3.969964e+01 -2.269430e+01 6.611651e+01 -2.323989e-08 1.271097e-08 1.703008e-08 0 0 0 -2.612045e+01 -5.199444e+00 1.473407e+01 -6.360148e+01 -3.702977e+00 -2.271803e+01 -3.438979e-08 1.247140e-08 3.047280e-08 1.353700e-01 -8.017996e-01 -9.602078e-05 0 -9.989380e-09 1.788776e-08 
0 0 0 -1.450995e+00 -3.992935e-01 -1.300372e+01 -7.924899e-01 1.520781e+01 1.464628e-01 3.330805e+00 -9.967190e+00 1.151960e+00 0 6.798374e-09 4.169463e-09 1.585035e+00 1.398648e+01 -4.013376e-01 1.214699e+00 -2.185687e+01 1.193332e+00 0 7.173013e-09 -7.995299e-09 1.670868e-07 -9.755114e-06 5.869956e-06 0 0 0 4.017790e+01 -3.796888e+01 7.137522e-01 3.578451e+01 -2.366792e+01 6.466266e+01 -2.323989e-08 2.110772e-08 1.727727e-08 0 0 0 -2.543806e+01 -3.825928e+00 1.421659e+01 -5.753207e+01 -3.610092e+00 -1.067993e+01 -3.438979e-08 1.247140e-08 3.047280e-08 2.515064e-02 -9.139550e-01 -6.036034e-05 0 -9.989380e-09 2.282003e-08 
0 0 0 -1.501517e+00 -4.211692e-01 -1.302606e+01 -6.716929e-01 1.513849e+01 1.955408e-01 3.425186e+00 -9.971837e+00 1.144588e+00 0 6.798374e-09 5.510932e-09 1.365727e+00 1.394610e+01 -5.196761e-01 1.456167e+00 -2.197167e+01 1.567907e+00 0 7.173013e-09 -7.995299e-09 1.257008e-07 -2.192273e-06 5.070966e-06 0 0 0 4.005195e+01 -3.792275e+01 7.826377e-01 3.524267e+01 -2.536911e+01 8.037575e+01 -1.136804e-08 3.914926e-08 1.820854e-08 0 0 0 -3.136704e+01 -3.359709e+00 1.391319e+01 -5.371981e+01 -4.863800e+00 -2.245428e+01 -1.680012e-08 1.247140e-08 1.628201e-08 1.588264e-02 -9.053608e-01 -4.125722e-04 0 -4.890424e-09 1.960741e-08 
0 0 0 -1.894546e+00 -4.668108e-01 -1.286092e+01 -4.853683e-01 1.502458e+01 2.205932e-01 3.457866e+00 -9.864673e+00 1.147637e+00 0 3.543470e-09 5.510932e-09 1.654931e+00 1.401215e+01 -4.853881e-01 1.272340e+00 -2.224726e+01 1.172337e+00 0 4.061088e-09 -6.584611e-09 1.257008e-07 -3.053796e-06 -4.804758e-06 0 0 0 4.012505e+01 -3.787684e+01 5.259072e-01 3.793643e+01 -2.071573e+01 7.229517e+01 -2.110626e-08 2.643829e-08 1.495873e-08 0 0 0 -2.441543e+01 -3.590241e+00 1.375424e+01 -5.220357e+01 -3.711846e+00 -2.245428e+01 -3.416606e-08 2.422807e-08 3.185878e-08 -5.167296e-02 -8.639753e-01 -4.877376e-04 0 -1.015495e-08 1.960741e-08 
0 0 0 -1.934669e+00 -5.080584e-01 -1.257879e+01 -2.673551e-01 1.484606e+01 2.719498e-01 3.437907e+00 -9.787404e+00 1.164604e+00 0 7.950949e-09 3.079751e-09 1.085601e+00 1.389194e+01 -3.438436e-01 1.121356e+00 -2.239316e+01 1.159453e+00 0 7.675932e-09 -7.486404e-09 1.052546e-07 -1.411294e-06 -1.585391e-05 0 0 0 4.025304e+01 -3.788482e+01 2.315089e-01 4.318301e+01 -2.119606e+01 6.555207e+01 -2.110626e-08 2.643829e-08 1.278649e-08 0 0 0 -2.368778e+01 -4.941744e+00 1.354962e+01 -5.309625e+01 -3.067071e+00 -1.177435e+01 -3.416606e-08 2.250939e-08 3.185878e-08 -6.242119e-02 -8.346771e-01 -6.001138e-04 0 -1.015495e-08 1.788646e-08 
0 0 0 -1.938450e+00 -4.751640e-01 -1.234413e+01 -1.661767e-01 1.475351e+01 2.689217e-01 3.444718e+00 -9.713790e+00 1.152126e+00 0 7.950949e-09 3.974785e-09 1.083715e+00 1.365197e+01 -3.111932e-01 1.294814e+00 -2.228128e+01 1.571056e+00 0 7.675932e-09 -5.239605e-09 9.019977e-08 -1.411294e-06 -2.849870e-05 0 0 0 4.031439e+01 -3.787727e+01 2.140985e-01 5.071975e+01 -2.058878e+01 8.142527e+01 -9.738220e-09 4.074884e-08 1.278649e-08 0 0 0 -2.287563e+01 -7.425180e+00 1.333851e+01 -5.477479e+01 -3.654252e+00 -2.412352e+01 -1.736594e-08 3.537316e-09 1.557677e-08 -4.444392e-02 -8.364260e-01 -6.776505e-04 0 -5.264523e-09 3.005542e-08 
0 0 0 -1.902678e+00 -4.879935e-01 -1.217374e+01 -1.629316e-02 1.171619e+01 2.462041e-01 3.471725e+00 -7.718690e+00 1.160416e+00 0 4.407480e-09 1.897189e-09 1.294312e+00 1.088246e+01 -4.267444e-01 1.437804e+00 -2.267421e+01 1.189484e+00 0 3.614844e-09 -2.472472e-09 1.911217e-08 -1.803976e-06 -2.770400e-05 0 0 0 4.030191e+01 -3.775319e+01 3.162180e-01 6.015436e+01 -1.551240e+01 7.984510e+01 -2.135007e-08 3.235208e-08 1.278649e-08 0 0 0 -1.681918e+01 -1.077092e+01 1.306515e+01 -4.450377e+01 -2.514578e+00 -2.412352e+01 -3.458915e-08 5.808277e-08 3.040323e-08 6.354586e-03 -8.301890e-01 -8.796903e-04 0 -1.067148e-08 2.512316e-08 
0 0 0 -1.873727e+00 -5.501112e-01 -1.209626e+01 1.966614e-01 1.160707e+01 2.077533e-01 3.491914e+00 -7.624562e+00 1.161948e+00 0 7.803188e-09 1.336224e-09 9.031760e-01 1.075079e+01 -4.392784e-01 1.563549e+00 -2.293682e+01 1.206751e+00 0 6.509031e-09 -3.738306e-09 1.616489e-07 -1.806251e-06 -2.188667e-05 0 0 0 4.027627e+01 -3.767490e+01 5.812818e-01 7.060227e+01 -1.496960e+01 8.544651e+01 -2.135007e-08 1.431054e-08 1.546725e-08 0 0 0 -1.702218e+01 -1.487845e+01 1.274172e+01 -4.758242e+01 -2.360066e+00 -1.234917e+01 -3.458915e-08 5.808277e-08 3.040323e-08 3.020143e-02 -8.279012e-01 -5.915699e-04 0 -1.067148e-08 1.923375e-08 
0 0 0 -1.866467e+00 -6.464555e-01 -1.201451e+01 3.272118e-01 1.157614e+01 1.779634e-01 3.538625e+00 -7.560184e+00 1.154307e+00 0 7.803188e-09 3.701637e-09 7.094644e-01 1.050495e+01 -4.870888e-01 1.691495e+00 -2.316926e+01 1.594308e+00 0 6.509031e-09 -4.344940e-09 1.616489e-07 -6.974882e-08 -1.362031e-05 0 0 0 4.031263e+01 -3.782748e+01 1.246408e+00 8.072781e+01 -1.989279e+01 9.468931e+01 -1.161185e-08 2.634582e-08 2.254484e-08 0 0 0 -2.296258e+01 -1.955352e+01 1.244144e+01 -4.980059e+01 -3.695122e+00 -2.308572e+01 -1.722321e-08 4.963396e-08 1.482646e-08 7.213676e-02 -8.147474e-01 -3.237305e-04 0 -5.406953e-09 3.374931e-08 
0 0 0 -1.850261e+00 -9.472312e-01 -1.211173e+01 5.297406e-01 1.153851e+01 9.401188e-02 3.621444e+00 -5.608740e+00 1.143683e+00 0 3.395708e-09 3.141722e-09 1.123912e+00 7.830169e+00 -6.627390e-01 2.049679e+00 -2.334178e+01 1.191003e+00 0 2.894187e-09 -3.679538e-09 1.658393e-07 -6.974882e-08 6.399111e-07 0 0 0 4.038589e+01 -3.777693e+01 2.635048e+00 9.000050e+01 -1.444434e+01 7.970130e+01 -2.158502e-08 2.634582e-08 8.284732e-09 0 0 0 -1.739198e+01 -2.432673e+01 1.227697e+01 -5.138953e+01 -3.021432e+00 -2.308572e+01 -3.298891e-08 5.746805e-08 3.259368e-08 1.485326e-01 -7.697422e-01 8.761373e-04 0 -1.087244e-08 2.878242e-08 
0 0 0 -1.820258e+00 -1.337365e+00 -1.221080e+01 6.434793e-01 1.144651e+01 6.394363e-02 3.638225e+00 -5.552921e+00 1.150063e+00 0 6.731189e-09 3.110049e-09 7.205361e-01 7.915615e+00 -7.324995e-01 2.271024e+00 -2.425714e+01 1.143786e+00 0 7.833636e-09 -5.724933e-09 1.402634e-07 2.845204e-06 1.791323e-05 0 0 0 4.040350e+01 -3.769852e+01 4.944152e+00 9.779363e+01 -1.489773e+01 8.322433e+01 -2.158502e-08 1.203527e-08 2.057633e-08 0 0 0 -1.734435e+01 -2.853251e+01 1.219728e+01 -5.220335e+01 -3.213939e+00 -1.073655e+01 -3.298891e-08 5.637711e-08 3.259368e-08 2.226858e-01 -7.279943e-01 1.444664e-02 0 -1.087244e-08 1.451555e-08 
